<svg width="209" height="59" viewBox="0 0 209 59" fill="none" xmlns="http://www.w3.org/2000/svg">
<g opacity="0.7" clip-path="url(#clip0_241_32)">
<path d="M127.607 14.5673V16.5631H123.764V17.7867H126.824V19.7825H123.764V23.12H120.966V14.5664H127.607V14.5673Z" fill="#8F8F8F"/>
<path d="M133.234 14.5674L136.294 23.1209H133.507L133.175 21.9915H130.389L130.069 23.1209H127.329L130.389 14.5674H133.234ZM132.689 20.2098L131.787 17.1445L130.921 20.2098H132.689Z" fill="#8F8F8F"/>
<path d="M139.965 23.12H137.167V14.5664H141.199C144.045 14.5664 144.994 15.3396 144.994 17.0024C144.994 17.9878 144.542 18.8192 143.547 19.0933C144.45 19.4255 144.994 19.6395 144.994 21.3613C144.994 22.6208 145.064 22.8589 145.289 22.8589V23.12H142.456C142.385 22.929 142.314 22.3828 142.314 21.6234C142.314 20.5059 142.124 20.1387 140.819 20.1387H139.965V23.12ZM139.965 18.2619H141.068C141.935 18.2619 142.397 18.0487 142.397 17.4545C142.397 16.8483 141.922 16.5631 141.27 16.5631H139.965V18.2619Z" fill="#8F8F8F"/>
<path d="M156.095 14.5673V16.5631H151.933V17.7867H155.456V19.7825H151.933V21.1242H156.261V23.12H149.135V14.5664H156.095V14.5673Z" fill="#8F8F8F"/>
<path d="M163.066 14.5674L166.126 23.1209H163.339L163.007 21.9915H160.22L159.899 23.1209H157.16L160.22 14.5674H163.066ZM162.521 20.2098L161.619 17.1445L160.752 20.2098H162.521Z" fill="#8F8F8F"/>
<path d="M171.123 17.0494C171.016 16.4681 170.529 16.3131 169.996 16.3131C169.38 16.3131 169.106 16.4921 169.106 16.8003C169.106 18.0829 174.016 17.2866 174.016 20.3989C174.016 22.3818 172.369 23.3432 170.021 23.3432C167.767 23.3432 166.297 22.0257 166.238 20.481H168.918C168.918 20.9802 169.617 21.3723 170.175 21.3723C170.873 21.3723 171.336 21.1463 171.336 20.7422C171.336 19.4475 166.427 20.338 166.427 17.0715C166.427 15.2538 167.99 14.3403 170.126 14.3403C172.497 14.3403 173.576 15.5519 173.778 17.0476H171.123V17.0494Z" fill="#8F8F8F"/>
<path d="M180.07 23.12H177.274V16.5632H174.758V14.5674H182.585V16.5632H180.07V23.12Z" fill="#8F8F8F"/>
<path d="M190.656 14.5673V16.5631H186.494V17.7867H190.017V19.7825H186.494V21.1242H190.823V23.12H183.697V14.5664H190.656V14.5673Z" fill="#8F8F8F"/>
<path d="M194.896 23.12H192.099V14.5664H196.131C198.975 14.5664 199.924 15.3396 199.924 17.0024C199.924 17.9878 199.474 18.8192 198.477 19.0933C199.38 19.4255 199.924 19.6395 199.924 21.3613C199.924 22.6208 199.996 22.8589 200.221 22.8589V23.12H197.386C197.315 22.929 197.244 22.3828 197.244 21.6234C197.244 20.5059 197.055 20.1387 195.75 20.1387H194.896V23.12ZM194.896 18.2619H196C196.865 18.2619 197.328 18.0487 197.328 17.4545C197.328 16.8483 196.852 16.5631 196.201 16.5631H194.896V18.2619Z" fill="#8F8F8F"/>
<path d="M203.292 14.5674L206.34 19.2363L206.233 17.2885V14.5683H208.913V23.1219H206.291L203.244 18.4649L203.35 20.4128V23.1219H200.672V14.5683H203.292V14.5674Z" fill="#8F8F8F"/>
<path d="M127.607 25.6352V27.6301H123.764V28.8536H126.824V30.8495H123.764V34.186H120.966V25.6343H127.607V25.6352Z" fill="#8F8F8F"/>
<path d="M135.298 25.6352V27.6301H131.136V28.8536H134.658V30.8495H131.136V32.1911H135.465V34.186H128.338V25.6343H135.298V25.6352Z" fill="#8F8F8F"/>
<path d="M136.339 25.6353H140.085C142.836 25.6353 144.544 26.9187 144.544 29.733C144.544 32.9514 142.753 34.1861 140.015 34.1861H136.339V25.6353ZM139.137 32.1911H139.73C141.034 32.1911 141.746 31.5028 141.746 29.8871C141.746 28.1044 141.165 27.6302 139.67 27.6302H139.138V32.1911H139.137Z" fill="#8F8F8F"/>
<path d="M152.309 25.6352V27.6301H148.145V28.8536H151.669V30.8495H148.145V32.1911H152.474V34.186H145.348V25.6343H152.309V25.6352Z" fill="#8F8F8F"/>
<path d="M156.146 34.186H153.348V25.6343H157.378C160.224 25.6343 161.174 26.4066 161.174 28.0693C161.174 29.0548 160.722 29.8871 159.726 30.1602C160.628 30.4924 161.174 30.7065 161.174 32.4282C161.174 33.6877 161.244 33.9257 161.468 33.9257V34.186H158.635C158.564 33.9969 158.493 33.4496 158.493 32.6894C158.493 31.5738 158.304 31.2056 156.999 31.2056H156.146V34.186ZM156.146 29.3288H157.249C158.114 29.3288 158.577 29.1157 158.577 28.5214C158.577 27.9162 158.102 27.6301 157.45 27.6301H156.146V29.3288Z" fill="#8F8F8F"/>
<path d="M168.09 25.6353L171.148 34.187H168.362L168.029 33.0584H165.243L164.923 34.187H162.183L165.243 25.6353H168.09ZM167.544 31.2767L166.642 28.2124L165.775 31.2767H167.544Z" fill="#8F8F8F"/>
<path d="M174.42 32.1911H178.263V34.186H171.621V25.6343H174.42V32.1911H174.42Z" fill="#8F8F8F"/>
<path d="M123.764 36.7026V41.8219C123.764 42.6652 123.93 43.3896 125.08 43.3896C126.087 43.3896 126.385 42.7483 126.385 41.8219V36.7026H129.182V41.5367C129.182 44.28 127.913 45.4795 125.08 45.4795C122.435 45.4795 120.965 44.4691 120.965 41.5247V36.7017H123.764V36.7026Z" fill="#8F8F8F"/>
<path d="M132.872 36.7021L135.92 41.3702L135.812 39.4233V36.7031H138.492V45.2548H135.873L132.825 40.5997L132.931 42.5467V45.2548H130.251V36.7031H132.872V36.7021Z" fill="#8F8F8F"/>
<path d="M142.359 45.2539H139.561V36.7021H142.359V45.2539Z" fill="#8F8F8F"/>
<path d="M146.255 36.7021L147.748 42.3907L149.302 36.7021H152.125L149.161 45.2539H146.35L143.432 36.7021H146.255Z" fill="#8F8F8F"/>
<path d="M160.134 36.7026V38.6984H155.973V39.921H159.495V41.9169H155.973V43.2575H160.301V45.2534H153.174V36.7017H160.134V36.7026Z" fill="#8F8F8F"/>
<path d="M164.564 45.2539H161.765V36.7021H165.797C168.643 36.7021 169.591 37.4736 169.591 39.1372C169.591 40.1227 169.141 40.955 168.144 41.229C169.047 41.5602 169.591 41.7752 169.591 43.4961C169.591 44.7556 169.662 44.9928 169.887 44.9928V45.2539H167.053C166.982 45.0638 166.912 44.5175 166.912 43.7581C166.912 42.6416 166.723 42.2735 165.418 42.2735H164.564V45.2539ZM164.564 40.3958H165.667C166.532 40.3958 166.996 40.1827 166.996 39.5893C166.996 38.9822 166.521 38.698 165.869 38.698H164.564V40.3958Z" fill="#8F8F8F"/>
<path d="M175.645 39.1846C175.538 38.6023 175.053 38.4482 174.52 38.4482C173.902 38.4482 173.629 38.6254 173.629 38.9336C173.629 40.2171 178.54 39.4217 178.54 42.5331C178.54 44.516 176.891 45.4784 174.543 45.4784C172.29 45.4784 170.82 44.1589 170.761 42.6152H173.44C173.44 43.1134 174.14 43.5056 174.696 43.5056C175.397 43.5056 175.859 43.2805 175.859 42.8764C175.859 41.5827 170.949 42.4731 170.949 39.2058C170.949 37.3881 172.514 36.4736 174.649 36.4736C177.02 36.4736 178.099 37.6852 178.301 39.1827H175.645V39.1846Z" fill="#8F8F8F"/>
<path d="M182.058 45.2539H179.259V36.7021H182.058V45.2539Z" fill="#8F8F8F"/>
<path d="M188.017 45.2539H185.22V38.699H182.705V36.7031H190.532V38.699H188.017V45.2539Z" fill="#8F8F8F"/>
<path d="M194.189 36.7021L195.659 39.6004L197.129 36.7021H200.213L197.035 42.0945V45.2539H194.236V42.1424L191.058 36.7021H194.189Z" fill="#8F8F8F"/>
<path d="M96.1669 5.40834C95.4949 6.0639 95.0244 7.04723 94.8228 8.19446C94.6884 9.25977 94.8228 10.5709 95.4277 11.7181C95.4949 11.8001 95.5621 11.9639 95.6293 12.0459C95.8981 12.4556 96.2341 12.8653 96.5701 13.357C100.333 17.6181 104.903 20.732 108.801 23.1084C111.489 24.7473 113.035 26.55 113.64 29.3362C114.513 24.2556 113.64 21.7153 112.833 20.2403C111.422 17.4542 109.137 16.1431 108.935 15.9792C105.71 13.7667 101.274 11.1445 98.5862 8.35838C97.5781 7.29307 96.7717 6.22779 96.4357 5.08057C96.3685 5.16251 96.2341 5.24445 96.1669 5.40834Z" fill="#8F8F8F"/>
<path d="M94.4196 14.5859C93.4116 15.7332 92.7396 17.454 92.7396 18.929C92.7396 20.0762 92.874 21.2234 93.7476 23.0262C96.9733 29.7457 107.255 34.9901 109.809 36.8748C111.691 38.2679 113.236 40.3165 113.774 43.4304C114.244 39.9068 114.379 36.1373 113.572 33.8429C112.564 30.9748 111.153 29.4179 109.07 28.0248C105.71 25.8123 100.938 22.4526 97.3093 18.4373C96.0325 17.2082 94.9572 15.979 94.4196 14.5859Z" fill="#8F8F8F"/>
<path d="M102.551 8.35826C100.266 10.0791 96.9733 11.5541 94.4868 14.586C93.4116 15.7333 92.7396 17.4541 92.7396 18.9291C92.7396 20.0763 92.874 21.2235 93.7476 23.0263C93.7476 21.6333 94.89 19.5027 97.1077 17.9458C99.4598 16.2249 103.492 13.8485 105.978 10.4069C107.524 8.27631 106.583 5.65409 104.702 4.99854C105.105 6.47354 103.358 7.7027 102.551 8.35826Z" fill="white"/>
<path d="M100.266 2.37639C99.1238 3.03194 97.7125 3.85139 96.4357 4.99861C96.3013 5.08056 96.2341 5.24444 96.0997 5.32639C95.4277 5.98194 94.9572 6.96528 94.7556 8.1125C94.6212 9.17778 94.7556 10.4889 95.3605 11.6361C95.4277 11.7181 95.4949 11.8819 95.5621 11.9639C95.6293 10.2431 96.7045 9.01389 98.4518 7.94861C100.199 6.80139 101.812 5.40833 102.82 4.17917C104.03 2.62222 103.022 0.245833 101.879 0C102.148 1.22917 101.073 1.96667 100.266 2.37639Z" fill="white"/>
<path d="M91.8659 27.0415C89.7154 30.729 89.8498 33.7609 91.2611 36.4651C93.6804 40.9721 99.7286 44.4137 104.567 47.3637C106.919 48.8387 109.07 50.3957 110.817 52.854C111.959 54.4929 112.968 56.4596 113.64 58.9998H113.707C114.244 55.3943 114.177 50.8054 113.438 48.2651C112.766 45.8068 111.287 43.2665 108.331 40.9721C104.5 38.0221 98.5862 35.3179 95.0916 31.3026C93.7476 29.5818 92.4035 28.3526 91.8659 27.0415C91.9331 27.0415 91.9331 27.0415 91.8659 27.0415Z" fill="#8F8F8F"/>
<path d="M105.978 14.996C102.35 18.2738 95.226 22.371 91.9331 26.9599C91.9331 26.9599 91.9331 27.0418 91.8659 27.0418C89.7154 30.7293 89.8498 33.7613 91.2611 36.4654C91.2611 35.0724 92.9412 33.1057 95.1588 30.9751C99.0566 27.1238 105.978 23.6821 109.876 17.5363C111.287 15.3238 110.347 11.7182 108.263 10.7349C108.734 12.1279 107.457 13.6029 105.978 14.996Z" fill="white"/>
<path d="M15.4569 14.75V19.9128H6.51374V23.0782H13.6359V28.241H6.51374V36.875H0V14.7509H15.4569V14.75Z" fill="#8F8F8F"/>
<path d="M37.5384 14.75V19.9128H28.5114V23.0782H36.1502V28.241H28.5114V31.7131H37.8992V36.875H22.4423V14.7509H37.5384V14.75Z" fill="#8F8F8F"/>
<path d="M60.3155 14.75V19.9128H51.3729V23.0782H58.4939V28.241H51.3729V36.875H44.8587V14.7509H60.3155V14.75Z" fill="#8F8F8F"/>
<path d="M71.9195 14.75V27.6534C71.9195 29.779 72.2307 31.6056 74.3953 31.6056C76.2904 31.6056 76.8475 29.9887 76.8475 27.6534V14.75H82.1115V26.9351C82.1115 33.8517 79.7244 36.875 74.3946 36.875C69.4209 36.875 66.6546 34.33 66.6546 26.9056V14.75H71.9195Z" fill="#8F8F8F"/>
<path d="M63.8451 38.5137V45.0692H62.3179V41.2836H61.1544V39.991C61.5907 39.991 61.8816 39.8987 62.1725 39.714C62.4634 39.437 62.6088 39.0677 62.6815 38.5137H63.8451Z" fill="#8F8F8F"/>
<path d="M66.8631 41.7427C66.6479 41.5605 66.5045 41.4695 66.3611 41.2874C66.2176 41.1053 66.2176 40.8322 66.2176 40.4679C66.2176 39.9217 66.4328 39.4664 66.8631 39.1023C67.2214 38.8291 67.7234 38.647 68.2973 38.647C68.8712 38.647 69.3013 38.8291 69.6602 39.1023C70.0183 39.3754 70.2334 39.8306 70.2334 40.3769C70.2334 40.7411 70.1622 41.0143 70.0903 41.1963C70.0183 41.3784 69.8033 41.5605 69.5883 41.7427C69.8752 41.8337 70.0903 42.1068 70.2334 42.2889C70.3772 42.4711 70.4484 42.8352 70.4484 43.1994C70.4484 43.8368 70.2334 44.292 69.8752 44.6562C69.4444 45.0204 68.9424 45.2025 68.2973 45.2025C67.6521 45.2025 67.1499 45.0204 66.7913 44.7472C66.3611 44.3831 66.1459 43.8368 66.1459 43.1994C66.1459 42.8352 66.2168 42.4648 66.3092 42.2889C66.4016 42.113 66.5762 41.8337 66.8631 41.7427ZM68.3692 43.8368C68.7274 43.7457 68.8712 43.5636 68.8712 43.1084C68.8712 42.8352 68.7993 42.6532 68.6562 42.4711C68.5123 42.2889 68.3692 42.2889 68.1542 42.2889C67.9384 42.2889 67.7953 42.38 67.6521 42.4711C67.5083 42.5621 67.4364 42.8352 67.4364 43.1084C67.4364 43.3816 67.5083 43.6348 67.6521 43.7258C67.7953 43.8168 67.9384 43.8368 68.1542 43.8368C68.2973 43.8368 68.3692 43.8368 68.3692 43.8368ZM68.2254 41.1963C68.4404 41.1963 68.5842 41.1053 68.6562 41.0143C68.7993 40.9232 68.7993 40.7411 68.7993 40.4679C68.7993 40.2859 68.7274 40.1038 68.6562 39.9216C68.5123 39.8306 68.3692 39.7395 68.2254 39.7395C68.0103 39.7395 67.8672 39.8306 67.7953 39.9216C67.7234 40.0127 67.6521 40.1948 67.6521 40.4679C67.6521 40.65 67.7234 40.8322 67.7953 40.9232C67.8672 41.0143 68.0103 41.1963 68.2254 41.1963Z" fill="#8F8F8F"/>
<path d="M72.0412 43.363L73.3852 43.2732C73.4558 43.6324 73.6681 43.812 73.9511 43.812C74.234 43.812 74.3751 43.7221 74.5169 43.4528C74.658 43.1834 74.7286 42.8242 74.7286 42.3751C74.5169 42.5548 74.3751 42.6446 74.1634 42.7344C74.0216 42.8242 73.8093 42.8242 73.5263 42.8242C73.0317 42.8242 72.607 42.5548 72.2535 42.1058C71.9706 41.7465 71.8288 41.2976 71.8288 40.7587C71.8288 40.0403 72.0412 39.4117 72.3946 39.0525C72.7488 38.6933 73.2434 38.5137 73.8093 38.5137C74.5875 38.5137 75.1533 38.7831 75.5068 39.3219C75.9315 39.8607 76.1432 40.6689 76.1432 41.8364C76.1432 42.8242 75.9315 43.6324 75.578 44.1712C75.2239 44.7998 74.658 45.0692 73.9511 45.0692C73.4558 45.0692 73.0311 44.9794 72.6776 44.71C72.3946 44.4406 72.183 43.9916 72.0412 43.363ZM74.0216 41.5669C74.234 41.5669 74.4463 41.4771 74.5169 41.2976C74.658 41.1179 74.658 40.9383 74.658 40.6689C74.658 40.3995 74.5875 40.2199 74.4457 40.1301C74.3045 40.0403 74.1634 39.8607 73.9511 39.8607C73.7387 39.8607 73.5976 39.9505 73.4558 40.1301C73.3146 40.3097 73.314 40.4894 73.314 40.7587C73.314 41.0281 73.3852 41.2078 73.4558 41.3874C73.6681 41.4771 73.8093 41.5669 74.0216 41.5669Z" fill="#8F8F8F"/>
<path d="M78.0383 43.363L79.3824 43.2732C79.4529 43.6324 79.6653 43.812 79.9482 43.812C80.2311 43.812 80.3729 43.7221 80.5141 43.4528C80.6559 43.1834 80.7264 42.8242 80.7264 42.3751C80.5141 42.5548 80.3729 42.6446 80.1606 42.7344C80.0188 42.8242 79.8071 42.8242 79.5242 42.8242C79.0289 42.8242 78.6042 42.5548 78.2507 42.1058C77.9678 41.7465 77.8266 41.2976 77.8266 40.7587C77.8266 40.0403 78.0383 39.4117 78.3925 39.0525C78.746 38.6933 79.2412 38.5137 79.8071 38.5137C80.5846 38.5137 81.1505 38.7831 81.5046 39.3219C81.9287 39.8607 82.141 40.6689 82.141 41.8364C82.141 42.8242 81.9287 43.6324 81.5752 44.1712C81.2217 44.7998 80.6559 45.0692 79.9482 45.0692C79.4529 45.0692 79.0289 44.9794 78.6754 44.71C78.3925 44.4406 78.1096 43.9916 78.0383 43.363ZM80.0188 41.5669C80.2311 41.5669 80.4435 41.4771 80.5141 41.2976C80.6559 41.1179 80.6559 40.9383 80.6559 40.6689C80.6559 40.3995 80.5846 40.2199 80.4435 40.1301C80.3017 40.0403 80.1606 39.8607 79.9482 39.8607C79.7359 39.8607 79.5947 39.9505 79.4529 40.1301C79.3118 40.3097 79.3118 40.4894 79.3118 40.7587C79.3118 41.0281 79.3824 41.2078 79.4529 41.3874C79.6653 41.4771 79.8071 41.5669 80.0188 41.5669Z" fill="#8F8F8F"/>
</g>
<defs>
<clipPath id="clip0_241_32">
<rect width="209" height="59" fill="white"/>
</clipPath>
</defs>
</svg>
