<svg width="209" height="59" viewBox="0 0 209 59" fill="none" xmlns="http://www.w3.org/2000/svg">
<g clip-path="url(#clip0_58_44)">
<path d="M127.607 14.5673V16.5631H123.764V17.7867H126.824V19.7825H123.764V23.12H120.966V14.5664H127.607V14.5673Z" fill="#00664E"/>
<path d="M133.234 14.5674L136.294 23.1209H133.507L133.175 21.9915H130.389L130.069 23.1209H127.329L130.389 14.5674H133.234ZM132.689 20.2098L131.787 17.1445L130.921 20.2098H132.689Z" fill="#00664E"/>
<path d="M139.965 23.12H137.167V14.5664H141.199C144.045 14.5664 144.994 15.3396 144.994 17.0024C144.994 17.9878 144.542 18.8192 143.547 19.0933C144.45 19.4255 144.994 19.6395 144.994 21.3613C144.994 22.6208 145.064 22.8589 145.289 22.8589V23.12H142.456C142.385 22.929 142.314 22.3828 142.314 21.6234C142.314 20.5059 142.124 20.1387 140.819 20.1387H139.965V23.12ZM139.965 18.2619H141.068C141.935 18.2619 142.397 18.0487 142.397 17.4545C142.397 16.8483 141.922 16.5631 141.27 16.5631H139.965V18.2619Z" fill="#00664E"/>
<path d="M156.095 14.5673V16.5631H151.933V17.7867H155.456V19.7825H151.933V21.1242H156.261V23.12H149.135V14.5664H156.095V14.5673Z" fill="#00664E"/>
<path d="M163.066 14.5674L166.126 23.1209H163.339L163.007 21.9915H160.22L159.899 23.1209H157.16L160.22 14.5674H163.066ZM162.521 20.2098L161.619 17.1445L160.752 20.2098H162.521Z" fill="#00664E"/>
<path d="M171.123 17.0494C171.016 16.4681 170.529 16.3131 169.996 16.3131C169.38 16.3131 169.106 16.4921 169.106 16.8003C169.106 18.0829 174.016 17.2866 174.016 20.3989C174.016 22.3818 172.369 23.3432 170.021 23.3432C167.767 23.3432 166.297 22.0257 166.238 20.481H168.918C168.918 20.9802 169.617 21.3723 170.175 21.3723C170.873 21.3723 171.336 21.1463 171.336 20.7422C171.336 19.4475 166.427 20.338 166.427 17.0715C166.427 15.2538 167.99 14.3403 170.126 14.3403C172.497 14.3403 173.576 15.5519 173.778 17.0476H171.123V17.0494Z" fill="#00664E"/>
<path d="M180.07 23.12H177.274V16.5632H174.758V14.5674H182.585V16.5632H180.07V23.12Z" fill="#00664E"/>
<path d="M190.656 14.5673V16.5631H186.494V17.7867H190.017V19.7825H186.494V21.1242H190.823V23.12H183.697V14.5664H190.656V14.5673Z" fill="#00664E"/>
<path d="M194.896 23.12H192.099V14.5664H196.131C198.975 14.5664 199.924 15.3396 199.924 17.0024C199.924 17.9878 199.474 18.8192 198.477 19.0933C199.38 19.4255 199.924 19.6395 199.924 21.3613C199.924 22.6208 199.996 22.8589 200.221 22.8589V23.12H197.386C197.315 22.929 197.244 22.3828 197.244 21.6234C197.244 20.5059 197.055 20.1387 195.75 20.1387H194.896V23.12ZM194.896 18.2619H196C196.865 18.2619 197.328 18.0487 197.328 17.4545C197.328 16.8483 196.852 16.5631 196.201 16.5631H194.896V18.2619Z" fill="#00664E"/>
<path d="M203.292 14.5674L206.34 19.2363L206.233 17.2885V14.5683H208.913V23.1219H206.291L203.244 18.4649L203.35 20.4128V23.1219H200.672V14.5683H203.292V14.5674Z" fill="#00664E"/>
<path d="M127.607 25.6354V27.6304H123.764V28.8539H126.824V30.8497H123.764V34.1862H120.966V25.6345H127.607V25.6354Z" fill="#00664E"/>
<path d="M135.298 25.6354V27.6304H131.136V28.8539H134.658V30.8497H131.136V32.1913H135.465V34.1862H128.338V25.6345H135.298V25.6354Z" fill="#00664E"/>
<path d="M136.339 25.6353H140.085C142.836 25.6353 144.544 26.9187 144.544 29.733C144.544 32.9514 142.753 34.1861 140.015 34.1861H136.339V25.6353ZM139.137 32.1911H139.73C141.034 32.1911 141.746 31.5028 141.746 29.8871C141.746 28.1044 141.165 27.6302 139.67 27.6302H139.138V32.1911H139.137Z" fill="#00664E"/>
<path d="M152.309 25.6354V27.6304H148.145V28.8539H151.669V30.8497H148.145V32.1913H152.474V34.1862H145.348V25.6345H152.309V25.6354Z" fill="#00664E"/>
<path d="M156.146 34.1862H153.348V25.6345H157.378C160.224 25.6345 161.174 26.4068 161.174 28.0696C161.174 29.055 160.722 29.8874 159.726 30.1605C160.628 30.4926 161.174 30.7067 161.174 32.4285C161.174 33.6879 161.244 33.926 161.468 33.926V34.1862H158.635C158.564 33.9971 158.493 33.4499 158.493 32.6896C158.493 31.574 158.304 31.2058 156.999 31.2058H156.146V34.1862ZM156.146 29.3291H157.249C158.114 29.3291 158.577 29.1159 158.577 28.5217C158.577 27.9164 158.102 27.6304 157.45 27.6304H156.146V29.3291Z" fill="#00664E"/>
<path d="M168.09 25.6353L171.148 34.187H168.362L168.029 33.0584H165.243L164.923 34.187H162.183L165.243 25.6353H168.09ZM167.544 31.2767L166.642 28.2124L165.775 31.2767H167.544Z" fill="#00664E"/>
<path d="M174.42 32.1913H178.263V34.1862H171.621V25.6345H174.42V32.1913H174.42Z" fill="#00664E"/>
<path d="M123.764 36.7024V41.8216C123.764 42.6649 123.93 43.3893 125.08 43.3893C126.087 43.3893 126.384 42.748 126.384 41.8216V36.7024H129.182V41.5365C129.182 44.2797 127.913 45.4792 125.08 45.4792C122.435 45.4792 120.965 44.4688 120.965 41.5245V36.7014H123.764V36.7024Z" fill="#00664E"/>
<path d="M132.872 36.7024L135.92 41.3704L135.812 39.4235V36.7033H138.492V45.255H135.873L132.825 40.5999L132.931 42.5469V45.255H130.251V36.7033H132.872V36.7024Z" fill="#00664E"/>
<path d="M142.359 45.2541H139.561V36.7024H142.359V45.2541Z" fill="#00664E"/>
<path d="M146.255 36.7024L147.748 42.391L149.302 36.7024H152.125L149.161 45.2541H146.35L143.432 36.7024H146.255Z" fill="#00664E"/>
<path d="M160.134 36.7024V38.6982H155.973V39.9208H159.495V41.9166H155.973V43.2573H160.301V45.2531H153.174V36.7014H160.134V36.7024Z" fill="#00664E"/>
<path d="M164.564 45.2541H161.765V36.7024H165.797C168.643 36.7024 169.591 37.4738 169.591 39.1375C169.591 40.1229 169.141 40.9552 168.144 41.2292C169.047 41.5605 169.591 41.7755 169.591 43.4963C169.591 44.7559 169.662 44.993 169.887 44.993V45.2541H167.053C166.982 45.064 166.912 44.5178 166.912 43.7584C166.912 42.6419 166.723 42.2737 165.418 42.2737H164.564V45.2541ZM164.564 40.396H165.667C166.532 40.396 166.996 40.1829 166.996 39.5895C166.996 38.9824 166.521 38.6982 165.869 38.6982H164.564V40.396Z" fill="#00664E"/>
<path d="M175.645 39.1844C175.538 38.6021 175.053 38.448 174.52 38.448C173.902 38.448 173.629 38.6252 173.629 38.9334C173.629 40.2169 178.54 39.4214 178.54 42.5329C178.54 44.5157 176.891 45.4782 174.543 45.4782C172.29 45.4782 170.82 44.1586 170.761 42.615H173.44C173.44 43.1132 174.14 43.5054 174.696 43.5054C175.397 43.5054 175.859 43.2803 175.859 42.8761C175.859 41.5825 170.949 42.4729 170.949 39.2056C170.949 37.3878 172.514 36.4734 174.649 36.4734C177.02 36.4734 178.099 37.6849 178.301 39.1825H175.645V39.1844Z" fill="#00664E"/>
<path d="M182.058 45.2541H179.26V36.7024H182.058V45.2541Z" fill="#00664E"/>
<path d="M188.017 45.2542H185.22V38.6992H182.705V36.7034H190.532V38.6992H188.017V45.2542Z" fill="#00664E"/>
<path d="M194.189 36.7024L195.659 39.6006L197.129 36.7024H200.213L197.035 42.0947V45.2541H194.236V42.1427L191.058 36.7024H194.189Z" fill="#00664E"/>
<path d="M96.1669 5.40834C95.4949 6.0639 95.0244 7.04723 94.8228 8.19446C94.6884 9.25977 94.8228 10.5709 95.4277 11.7181C95.4949 11.8001 95.5621 11.9639 95.6293 12.0459C95.8981 12.4556 96.2341 12.8653 96.5701 13.357C100.333 17.6181 104.903 20.732 108.801 23.1084C111.489 24.7473 113.035 26.55 113.64 29.3362C114.513 24.2556 113.64 21.7153 112.833 20.2403C111.422 17.4542 109.137 16.1431 108.935 15.9792C105.71 13.7667 101.274 11.1445 98.5862 8.35838C97.5781 7.29307 96.7717 6.22779 96.4357 5.08057C96.3685 5.16251 96.2341 5.24445 96.1669 5.40834Z" fill="#00664E"/>
<path d="M94.4196 14.5862C93.4116 15.7334 92.7396 17.4542 92.7396 18.9292C92.7396 20.0765 92.874 21.2237 93.7476 23.0265C96.9733 29.7459 107.255 34.9903 109.809 36.8751C111.691 38.2681 113.236 40.3167 113.774 43.4306C114.244 39.907 114.379 36.1376 113.572 33.8431C112.564 30.9751 111.153 29.4181 109.07 28.0251C105.71 25.8126 100.938 22.4528 97.3093 18.4376C96.0325 17.2084 94.9572 15.9792 94.4196 14.5862Z" fill="#00664E"/>
<path d="M102.551 8.3585C100.266 10.0793 96.9733 11.5543 94.4868 14.5863C93.4116 15.7335 92.7396 17.4543 92.7396 18.9293C92.7396 20.0766 92.874 21.2238 93.7476 23.0266C93.7476 21.6335 94.89 19.5029 97.1077 17.946C99.4598 16.2252 103.492 13.8488 105.978 10.4071C107.524 8.27656 106.583 5.65433 104.702 4.99878C105.105 6.47378 103.358 7.70295 102.551 8.3585Z" fill="#05DC7F"/>
<path d="M100.266 2.37639C99.1238 3.03194 97.7125 3.85139 96.4357 4.99861C96.3013 5.08056 96.2341 5.24444 96.0997 5.32639C95.4277 5.98194 94.9572 6.96528 94.7556 8.1125C94.6212 9.17778 94.7556 10.4889 95.3605 11.6361C95.4277 11.7181 95.4949 11.8819 95.5621 11.9639C95.6293 10.2431 96.7045 9.01389 98.4518 7.94861C100.199 6.80139 101.812 5.40833 102.82 4.17917C104.03 2.62222 103.022 0.245833 101.879 0C102.148 1.22917 101.073 1.96667 100.266 2.37639Z" fill="#05DC7F"/>
<path d="M91.8659 27.0417C89.7154 30.7292 89.8498 33.7612 91.2611 36.4654C93.6804 40.9723 99.7286 44.414 104.567 47.364C106.919 48.839 109.07 50.3959 110.817 52.8542C111.959 54.4931 112.968 56.4598 113.64 59.0001H113.707C114.244 55.3945 114.177 50.8056 113.438 48.2654C112.766 45.807 111.287 43.2667 108.331 40.9723C104.5 38.0223 98.5862 35.3181 95.0916 31.3029C93.7476 29.582 92.4035 28.3529 91.8659 27.0417C91.9331 27.0417 91.9331 27.0417 91.8659 27.0417Z" fill="#00664E"/>
<path d="M105.978 14.996C102.35 18.2738 95.226 22.371 91.9331 26.9599C91.9331 26.9599 91.9331 27.0418 91.8659 27.0418C89.7154 30.7293 89.8498 33.7613 91.2611 36.4654C91.2611 35.0724 92.9412 33.1057 95.1588 30.9751C99.0566 27.1238 105.978 23.6821 109.876 17.5363C111.287 15.3238 110.347 11.7182 108.263 10.7349C108.734 12.1279 107.457 13.6029 105.978 14.996Z" fill="#05DC7F"/>
<path d="M15.4569 14.75V19.9128H6.51374V23.0782H13.6359V28.241H6.51374V36.875H0V14.7509H15.4569V14.75Z" fill="#00664E"/>
<path d="M37.5384 14.75V19.9128H28.5114V23.0782H36.1502V28.241H28.5114V31.7131H37.8992V36.875H22.4423V14.7509H37.5384V14.75Z" fill="#00664E"/>
<path d="M60.3155 14.75V19.9128H51.3729V23.0782H58.4938V28.241H51.3729V36.875H44.8587V14.7509H60.3155V14.75Z" fill="#00664E"/>
<path d="M71.9195 14.75V27.6534C71.9195 29.779 72.2307 31.6056 74.3953 31.6056C76.2904 31.6056 76.8475 29.9887 76.8475 27.6534V14.75H82.1115V26.9351C82.1115 33.8517 79.7244 36.875 74.3946 36.875C69.4209 36.875 66.6546 34.33 66.6546 26.9056V14.75H71.9195Z" fill="#00664E"/>
<path d="M63.8451 38.5139V45.0695H62.3179V41.2839H61.1544V39.9912C61.5907 39.9912 61.8816 39.8989 62.1725 39.7142C62.4634 39.4373 62.6088 39.0679 62.6815 38.5139H63.8451Z" fill="#00664E"/>
<path d="M66.8631 41.7429C66.6479 41.5607 66.5045 41.4697 66.3611 41.2876C66.2176 41.1055 66.2176 40.8324 66.2176 40.4682C66.2176 39.9219 66.4328 39.4667 66.8631 39.1025C67.2214 38.8293 67.7234 38.6472 68.2973 38.6472C68.8712 38.6472 69.3013 38.8293 69.6602 39.1025C70.0183 39.3756 70.2334 39.8308 70.2334 40.3771C70.2334 40.7413 70.1622 41.0145 70.0903 41.1966C70.0183 41.3787 69.8033 41.5607 69.5883 41.7429C69.8752 41.834 70.0903 42.1071 70.2334 42.2892C70.3772 42.4713 70.4484 42.8355 70.4484 43.1996C70.4484 43.837 70.2334 44.2923 69.8752 44.6564C69.4444 45.0207 68.9424 45.2028 68.2973 45.2028C67.6521 45.2028 67.1499 45.0207 66.7913 44.7475C66.3611 44.3833 66.1459 43.837 66.1459 43.1996C66.1459 42.8355 66.2168 42.4651 66.3092 42.2892C66.4016 42.1132 66.5762 41.834 66.8631 41.7429ZM68.3692 43.837C68.7274 43.746 68.8712 43.5639 68.8712 43.1086C68.8712 42.8355 68.7993 42.6534 68.6562 42.4713C68.5123 42.2892 68.3692 42.2892 68.1542 42.2892C67.9384 42.2892 67.7953 42.3803 67.6521 42.4713C67.5083 42.5624 67.4364 42.8355 67.4364 43.1086C67.4364 43.3818 67.5083 43.635 67.6521 43.7261C67.7953 43.8171 67.9384 43.837 68.1542 43.837C68.2973 43.837 68.3692 43.837 68.3692 43.837ZM68.2254 41.1966C68.4404 41.1966 68.5842 41.1055 68.6562 41.0145C68.7993 40.9235 68.7993 40.7413 68.7993 40.4682C68.7993 40.2861 68.7274 40.104 68.6562 39.9219C68.5123 39.8308 68.3692 39.7398 68.2254 39.7398C68.0103 39.7398 67.8672 39.8308 67.7953 39.9219C67.7234 40.013 67.6521 40.1951 67.6521 40.4682C67.6521 40.6503 67.7234 40.8324 67.7953 40.9235C67.8672 41.0145 68.0103 41.1966 68.2254 41.1966Z" fill="#00664E"/>
<path d="M72.0412 43.3632L73.3852 43.2734C73.4558 43.6327 73.6681 43.8122 73.9511 43.8122C74.234 43.8122 74.3751 43.7224 74.5169 43.453C74.658 43.1836 74.7286 42.8244 74.7286 42.3754C74.5169 42.555 74.3751 42.6448 74.1634 42.7346C74.0216 42.8244 73.8093 42.8244 73.5263 42.8244C73.0317 42.8244 72.607 42.555 72.2535 42.106C71.9706 41.7468 71.8288 41.2978 71.8288 40.7589C71.8288 40.0405 72.0412 39.4119 72.3946 39.0527C72.7488 38.6935 73.2434 38.5139 73.8093 38.5139C74.5875 38.5139 75.1533 38.7834 75.5068 39.3221C75.9315 39.8609 76.1432 40.6691 76.1432 41.8366C76.1432 42.8244 75.9315 43.6327 75.578 44.1714C75.2239 44.8 74.658 45.0695 73.9511 45.0695C73.4558 45.0695 73.0311 44.9797 72.6776 44.7102C72.3946 44.4409 72.183 43.9918 72.0412 43.3632ZM74.0216 41.5672C74.234 41.5672 74.4463 41.4774 74.5169 41.2978C74.658 41.1182 74.658 40.9386 74.658 40.6691C74.658 40.3998 74.5875 40.2202 74.4457 40.1304C74.3045 40.0405 74.1634 39.8609 73.9511 39.8609C73.7387 39.8609 73.5976 39.9507 73.4558 40.1304C73.3146 40.31 73.314 40.4896 73.314 40.7589C73.314 41.0284 73.3852 41.208 73.4558 41.3876C73.6681 41.4774 73.8093 41.5672 74.0216 41.5672Z" fill="#00664E"/>
<path d="M78.0383 43.3632L79.3823 43.2734C79.4529 43.6327 79.6653 43.8122 79.9482 43.8122C80.2311 43.8122 80.3729 43.7224 80.514 43.453C80.6558 43.1836 80.7264 42.8244 80.7264 42.3754C80.514 42.555 80.3729 42.6448 80.1605 42.7346C80.0187 42.8244 79.8071 42.8244 79.5241 42.8244C79.0289 42.8244 78.6041 42.555 78.2507 42.106C77.9677 41.7468 77.8266 41.2978 77.8266 40.7589C77.8266 40.0405 78.0383 39.4119 78.3924 39.0527C78.7459 38.6935 79.2412 38.5139 79.8071 38.5139C80.5846 38.5139 81.1504 38.7834 81.5046 39.3221C81.9286 39.8609 82.141 40.6691 82.141 41.8366C82.141 42.8244 81.9286 43.6327 81.5752 44.1714C81.2217 44.8 80.6558 45.0695 79.9482 45.0695C79.4529 45.0695 79.0289 44.9797 78.6754 44.7102C78.3924 44.4409 78.1095 43.9918 78.0383 43.3632ZM80.0187 41.5672C80.2311 41.5672 80.4435 41.4774 80.514 41.2978C80.6558 41.1182 80.6558 40.9386 80.6558 40.6691C80.6558 40.3998 80.5846 40.2202 80.4435 40.1304C80.3017 40.0405 80.1605 39.8609 79.9482 39.8609C79.7358 39.8609 79.5947 39.9507 79.4529 40.1304C79.3118 40.31 79.3118 40.4896 79.3118 40.7589C79.3118 41.0284 79.3823 41.208 79.4529 41.3876C79.6653 41.4774 79.8071 41.5672 80.0187 41.5672Z" fill="#00664E"/>
</g>
<defs>
<clipPath id="clip0_58_44">
<rect width="209" height="59" fill="white"/>
</clipPath>
</defs>
</svg>
